<svg id="instagram" xmlns="http://www.w3.org/2000/svg" width="18.5" height="18.5" viewBox="0 0 18.5 18.5">
  <g id="グループ_7" data-name="グループ 7" transform="translate(0 0)">
    <path id="パス_3" data-name="パス 3" d="M9.25,0C6.74,0,6.424.012,5.438.056a6.816,6.816,0,0,0-2.247.43A4.529,4.529,0,0,0,1.553,1.553,4.541,4.541,0,0,0,.486,3.191a6.776,6.776,0,0,0-.43,2.243C.012,6.423,0,6.738,0,9.251s.012,2.826.056,3.812a6.814,6.814,0,0,0,.43,2.245,4.736,4.736,0,0,0,2.7,2.706,6.791,6.791,0,0,0,2.245.43c.987.044,1.3.055,3.815.055s2.826-.012,3.813-.056a6.829,6.829,0,0,0,2.247-.43,4.736,4.736,0,0,0,2.7-2.706,6.845,6.845,0,0,0,.43-2.245c.044-.986.055-1.3.055-3.813s-.012-2.827-.056-3.815a6.837,6.837,0,0,0-.43-2.244,4.54,4.54,0,0,0-1.067-1.638A4.522,4.522,0,0,0,15.309.486a6.8,6.8,0,0,0-2.247-.43C12.075.012,11.761,0,9.248,0h0ZM8.421,1.667h.83c2.47,0,2.762.008,3.737.053a5.126,5.126,0,0,1,1.718.318,2.87,2.87,0,0,1,1.064.693,2.858,2.858,0,0,1,.691,1.064,5.081,5.081,0,0,1,.318,1.717c.045.975.054,1.267.054,3.736s-.009,2.762-.054,3.737a5.117,5.117,0,0,1-.318,1.717,3.066,3.066,0,0,1-1.756,1.754,5.089,5.089,0,0,1-1.717.319c-.975.044-1.267.054-3.737.054s-2.763-.01-3.738-.054A5.109,5.109,0,0,1,3.8,16.456a2.865,2.865,0,0,1-1.064-.691A2.868,2.868,0,0,1,2.038,14.7a5.111,5.111,0,0,1-.318-1.717c-.044-.975-.053-1.267-.053-3.738s.009-2.761.053-3.736A5.118,5.118,0,0,1,2.04,3.791a2.87,2.87,0,0,1,.693-1.064A2.858,2.858,0,0,1,3.8,2.036a5.109,5.109,0,0,1,1.717-.319c.853-.039,1.184-.051,2.908-.052v0ZM14.188,3.2a1.11,1.11,0,1,0,1.11,1.11,1.11,1.11,0,0,0-1.11-1.11ZM9.251,4.5A4.751,4.751,0,1,0,14,9.251,4.75,4.75,0,0,0,9.251,4.5Zm0,1.666A3.084,3.084,0,1,1,6.167,9.25,3.084,3.084,0,0,1,9.251,6.166Z" transform="translate(0 0)" fill="#AC2121"/>
  </g>
</svg>
